#N canvas 1354 175 1264 965 10;
#X obj 5 5 udpreceive 8338;
#X obj 7 223 print;
#X obj 5 32 unpackOSC;
#X obj 61 197 osc~;
#X obj 99 350 dac~;
#X obj 5 60 routeOSC /V-auRal;
#X obj 51 90 routeOSC /x;
#X obj 129 116 routeOSC /y;
#X obj 209 140 routeOSC /z;
#X obj 125 183 osc~;
#X obj 185 209 osc~;
#X obj 49 118 * 10;
#X obj 200 173 * 10;
#X obj 133 149 * 100;
#X obj 65 149 abs;
#X obj 49 266 *~ 0.25;
#X obj 111 266 *~ 0.25;
#X obj 169 265 *~ 0.25;
#X connect 0 0 2 0;
#X connect 2 0 5 0;
#X connect 3 0 15 0;
#X connect 5 0 6 0;
#X connect 6 0 11 0;
#X connect 6 1 7 0;
#X connect 7 0 13 0;
#X connect 7 1 8 0;
#X connect 8 0 12 0;
#X connect 9 0 16 0;
#X connect 10 0 17 0;
#X connect 11 0 14 0;
#X connect 12 0 10 0;
#X connect 13 0 9 0;
#X connect 14 0 3 0;
#X connect 14 0 1 0;
#X connect 15 0 4 0;
#X connect 16 0 4 0;
#X connect 17 0 4 0;
